<?xml version="1.0" encoding="utf-8"?>
<svg xmlns="http://www.w3.org/2000/svg" style="margin: auto; background: rgb(241, 242, 243); display: block; shape-rendering: auto;" width="275" height="539" preserveAspectRatio="xMidYMid">
<style type="text/css">
  text {
    text-anchor: middle; font-size: 92px; opacity: 0;
  }
</style>
<g style="transform-origin:137.5px 269.5px;transform:scale(1)">
<g transform="translate(137.5,269.5)">
  <g transform="translate(0,0)"><g class="path" style="transform: matrix(1, 0, 0, 1, 0, 0); transform-origin: -112.325px -8.42081px; animation: 2.08333s linear -1.22222s infinite normal forwards running bounce-3a077fa5-1a92-44dc-a8b8-99517a246ced;"><path d="M26.68-52.72L26.68-52.72L26.68-52.72Q19.41-43.61 16.19-34.50L16.19-34.50L16.28-34.50L16.28-34.50Q29.07-34.50 30.96-34.45L30.96-34.45L30.96-34.45Q32.84-34.41 33.03-34.59L33.03-34.59L33.03-34.59Q33.21-34.78 33.30-35.05L33.30-35.05L33.30-35.05Q31.74-46.37 30.82-50.46L30.82-50.46L30.82-50.46Q29.90-54.56 28.98-54.56L28.98-54.56L28.98-54.56Q28.06-54.56 26.68-52.72zM18.49-9.38L18.49-9.38L20.52-9.75L20.52-9.75Q21.44-9.75 21.44-8.74L21.44-8.74L21.44-8.74Q21.44-5.52 20.15-3.31L20.15-3.31L20.15-3.31Q18.86-1.10 16.93-0.18L16.93-0.18L16.93-0.18Q13.80 1.38 11.59 1.38L11.59 1.38L11.59 1.38Q7.36 1.38 5.24-1.79L5.24-1.79L5.24-1.79Q3.13-4.97 3.13-11.36L3.13-11.36L3.13-11.36Q3.13-17.76 6.62-27.97L6.62-27.97L1.29-27.97L1.29-27.97Q0.28-27.97 0.28-28.98L0.28-28.98L0.28-28.98Q0.28-29.99 1.84-32.25L1.84-32.25L1.84-32.25Q3.40-34.50 5.15-34.50L5.15-34.50L9.29-34.50L9.29-34.50Q15.82-49.04 24.66-59.62L24.66-59.62L24.66-59.62Q26.96-62.38 30.31-64.77L30.31-64.77L30.31-64.77Q33.67-67.16 35.51-67.16L35.51-67.16L35.51-67.16Q37.35-67.16 38.27-65.50L38.27-65.50L38.27-65.50Q40.66-61.64 43.88-37.26L43.88-37.26L43.88-37.26Q44.99-26.77 47.70-15.59L47.70-15.59L47.70-15.59Q50.42-4.42 52.72-2.58L52.72-2.58L52.72-2.58Q53.27-2.21 53.27-1.66L53.27-1.66L53.27-1.66Q53.27-0.28 49.36 0.92L49.36 0.92L49.36 0.92Q45.45 2.12 43.38 2.12L43.38 2.12L43.38 2.12Q41.31 2.12 40.20 1.61L40.20 1.61L40.20 1.61Q39.10 1.10 38.82 0.55L38.82 0.55L38.82 0.55Q37.17-3.04 35.51-16.56L35.51-16.56L34.96-20.88L34.96-20.88Q34.59-25.21 34.22-27.42L34.22-27.42L33.58-27.88L14.35-27.97L14.35-27.97Q13.25-23.28 13.25-19.78L13.25-19.78L13.25-19.78Q13.25-16.28 13.48-14.67L13.48-14.67L13.48-14.67Q13.71-13.06 15.00-11.22L15.00-11.22L15.00-11.22Q16.28-9.38 18.49-9.38" fill="#101010" stroke="none" stroke-width="none" transform="translate(-139.09999465942383,24.099185971154096)" style="fill: rgb(16, 16, 16);"></path></g><g class="path" style="transform: matrix(1, 0, 0, 1, 0, 0); transform-origin: -77.735px -6.81081px; animation: 2.08333s linear -1.06944s infinite normal forwards running bounce-3a077fa5-1a92-44dc-a8b8-99517a246ced;"><path d="M67.90-52.62L67.90-52.62L67.34-18.86L67.34-18.86Q67.34-3.04 68.36 0.09L68.36 0.09L68.36 0.09Q68.63 0.64 68.63 1.20L68.63 1.20L68.63 1.20Q68.63 2.30 65.96 2.30L65.96 2.30L65.96 2.30Q63.30 2.30 60.03 0.97L60.03 0.97L60.03 0.97Q56.76-0.37 56.76-2.48L56.76-2.48L56.76-2.48Q58.60-15.36 58.60-36.89L58.60-36.89L58.24-50.97L58.24-50.97Q58.05-53.54 57.18-55.38L57.18-55.38L57.18-55.38Q56.30-57.22 55.48-57.78L55.48-57.78L54.74-58.24L54.74-58.24Q54.10-58.60 54.10-59.06L54.10-59.06L54.10-59.06Q54.10-60.35 58.10-62.24L58.10-62.24L58.10-62.24Q62.10-64.12 65.87-64.12L65.87-64.12L65.87-64.12Q67.34-64.12 67.53-63.11L67.53-63.11L67.53-63.11Q67.90-60.72 67.90-52.62" fill="#101010" stroke="none" stroke-width="none" transform="translate(-139.09999465942383,24.099185971154096)" style="fill: rgb(16, 16, 16);"></path></g><g class="path" style="transform: matrix(1, 0, 0, 1, 0, 0); transform-origin: -57.13px -28.9408px; animation: 2.08333s linear -0.916667s infinite normal forwards running bounce-3a077fa5-1a92-44dc-a8b8-99517a246ced;"><path d="M83.63-49.22L83.63-49.22L81.42-49.31L81.42-49.31Q78.94-49.31 78.20-48.12L78.20-48.12L78.20-48.12Q78.02-47.84 77.74-47.84L77.74-47.84L77.74-47.84Q76.54-47.84 76.54-51.93L76.54-51.93L76.54-51.93Q76.54-56.03 77.79-57.13L77.79-57.13L77.79-57.13Q79.03-58.24 82.11-58.24L82.11-58.24L82.11-58.24Q85.19-58.24 86.30-57.18L86.30-57.18L86.30-57.18Q87.40-56.12 87.40-53.64L87.40-53.64L87.40-53.64Q87.40-51.15 86.57-50.19L86.57-50.19L86.57-50.19Q85.74-49.22 83.63-49.22" fill="#101010" stroke="none" stroke-width="none" transform="translate(-139.09999465942383,24.099185971154096)" style="fill: rgb(16, 16, 16);"></path></g><g class="path" style="transform: matrix(1, 0, 0, 1, 0, 0); transform-origin: -58.325px 4.36419px; animation: 2.08333s linear -0.763889s infinite normal forwards running bounce-3a077fa5-1a92-44dc-a8b8-99517a246ced;"><path d="M76.27-2.76L76.27-2.76L77.28-24.20L77.28-24.20Q77.28-31.83 75.53-34.59L75.53-34.59L75.53-34.59Q74.98-35.51 74.24-35.97L74.24-35.97L74.24-35.97Q73.69-36.16 73.69-36.71L73.69-36.71L73.69-36.71Q73.69-38.36 78.38-39.93L78.38-39.93L78.38-39.93Q83.08-41.49 85.24-41.49L85.24-41.49L85.24-41.49Q87.40-41.49 87.49-40.39L87.49-40.39L87.49-40.39Q87.49-38.55 86.99-29.95L86.99-29.95L86.99-29.95Q86.48-21.34 86.48-11.87L86.48-11.87L86.48-11.87Q86.48-2.39 87.58-0.09L87.58-0.09L87.58-0.09Q87.86 0.37 87.86 0.83L87.86 0.83L87.86 0.83Q87.86 2.02 84.36 2.02L84.36 2.02L84.36 2.02Q80.87 2.02 77.19 0.18L77.19 0.18L77.19 0.18Q76.27-0.28 76.27-2.76" fill="#101010" stroke="none" stroke-width="none" transform="translate(-139.09999465942383,24.099185971154096)" style="fill: rgb(16, 16, 16);"></path></g><g class="path" style="transform: matrix(1, 0, 0, 1, 0, 0); transform-origin: -31.23px 4.08919px; animation: 2.08333s linear -0.611111s infinite normal forwards running bounce-3a077fa5-1a92-44dc-a8b8-99517a246ced;"><path d="M102.21-23.37L102.21-23.37L102.30-21.07L102.30-21.07Q102.30-20.52 103.04-20.52L103.04-20.52L103.04-20.52Q105.98-20.79 108.19-22.03L108.19-22.03L108.19-22.03Q110.40-23.28 111.50-24.84L111.50-24.84L111.50-24.84Q113.71-28.24 113.90-30.73L113.90-30.73L113.99-31.83L113.99-31.83Q113.99-36.80 110.03-36.80L110.03-36.80L110.03-36.80Q107.09-36.80 105.25-34.22L105.25-34.22L105.25-34.22Q102.21-30.18 102.21-23.37zM122.27-11.13L122.27-11.13L122.27-11.13Q122.27-7.64 120.84-5.01L120.84-5.01L120.84-5.01Q119.42-2.39 117.62-1.15L117.62-1.15L117.62-1.15Q115.83 0.09 113.44 0.83L113.44 0.83L113.44 0.83Q110.40 1.75 107.64 1.75L107.64 1.75L107.64 1.75Q99.91 1.75 96.23-4.05L96.23-4.05L96.23-4.05Q92.55-9.84 92.55-18.81L92.55-18.81L92.55-18.81Q92.55-27.78 97.11-34.78L97.11-34.78L97.11-34.78Q101.66-41.77 110.77-41.77L110.77-41.77L110.77-41.77Q119.05-41.77 121.99-35.97L121.99-35.97L121.99-35.97Q123.19-33.76 123.19-31.79L123.19-31.79L123.19-31.79Q123.19-29.81 123.00-28.66L123.00-28.66L123.00-28.66Q122.82-27.51 121.72-25.21L121.72-25.21L121.72-25.21Q120.61-22.91 118.77-21.07L118.77-21.07L118.77-21.07Q116.93-19.23 112.98-17.57L112.98-17.57L112.98-17.57Q109.02-15.92 103.68-15.36L103.68-15.36L103.68-15.36Q102.95-15.36 102.95-14.72L102.95-14.72L102.95-14.72Q102.95-13.89 103.55-12.28L103.55-12.28L103.55-12.28Q104.14-10.67 104.88-9.57L104.88-9.57L104.88-9.57Q106.90-6.99 110.86-6.99L110.86-6.99L110.86-6.99Q114.82-6.99 117.58-9.57L117.58-9.57L117.58-9.57Q119.05-10.95 119.97-12.97L119.97-12.97L119.97-12.97Q120.34-13.71 120.93-13.71L120.93-13.71L120.93-13.71Q121.53-13.71 121.90-12.70L121.90-12.70L121.90-12.70Q122.27-11.68 122.27-11.13" fill="#101010" stroke="none" stroke-width="none" transform="translate(-139.09999465942383,24.099185971154096)" style="fill: rgb(16, 16, 16);"></path></g><g class="path" style="transform: matrix(1, 0, 0, 1, 0, 0); transform-origin: 2.99501px 4.22419px; animation: 2.08333s linear -0.458333s infinite normal forwards running bounce-3a077fa5-1a92-44dc-a8b8-99517a246ced;"><path d="M131.93-40.66L147.84-40.48L157.87-40.76L157.87-40.76Q159.07-40.76 159.07-39.74L159.07-39.74L159.07-39.74Q159.07-37.90 153.27-28.89L153.27-28.89L153.27-28.89Q147.48-19.87 143.20-13.16L143.20-13.16L143.20-13.16Q138.92-6.44 138.92-5.06L138.92-5.06L138.92-5.06Q138.92-4.14 141.50-4.14L141.50-4.14L141.50-4.14Q144.07-4.14 146.00-4.92L146.00-4.92L146.00-4.92Q147.94-5.70 148.86-6.99L148.86-6.99L148.86-6.99Q150.42-9.20 150.42-11.04L150.42-11.04L150.42-11.04Q150.42-12.88 150.05-14.63L150.05-14.63L150.05-14.63Q150.05-15.73 152.08-15.92L152.08-15.92L152.08-15.92Q156.86-15.92 158.42-13.25L158.42-13.25L158.42-13.25Q159.62-11.13 159.62-8.92L159.62-8.92L159.62-8.92Q159.62-3.96 155.57-1.47L155.57-1.47L155.57-1.47Q151.52 1.01 146.00 1.01L146.00 1.01L135.52 0.74L126.22 0.92L126.22 0.92Q124.57 0.92 124.57-0.23L124.57-0.23L124.57-0.23Q124.57-1.38 127.56-6.26L127.56-6.26L127.56-6.26Q130.55-11.13 133.58-15.46L133.58-15.46L136.62-19.78L136.62-19.78Q144.35-31.92 144.85-32.89L144.85-32.89L144.85-32.89Q145.36-33.86 145.36-34.59L145.36-34.59L145.36-34.59Q145.36-35.88 142.69-35.88L142.69-35.88L142.69-35.88Q140.02-35.88 137.86-35.14L137.86-35.14L137.86-35.14Q135.70-34.41 134.32-33.35L134.32-33.35L134.32-33.35Q132.94-32.29 131.93-31.19L131.93-31.19L131.93-31.19Q130.09-29.16 130.09-28.61L130.09-28.61L130.09-28.61Q129.81-27.69 129.08-27.69L129.08-27.69L128.98-27.69L128.98-27.69Q127.70-27.69 127.70-29.26L127.70-29.26L127.70-29.26Q127.70-32.84 129.35-37.72L129.35-37.72L130.00-39.38L130.00-39.38Q130.36-40.66 131.93-40.66L131.93-40.66" fill="#101010" stroke="none" stroke-width="none" transform="translate(-139.09999465942383,24.099185971154096)" style="fill: rgb(16, 16, 16);"></path></g><g class="path" style="transform: matrix(1, 0, 0, 1, 0, 0); transform-origin: 39.425px -7.04581px; animation: 2.08333s linear -0.305556s infinite normal forwards running bounce-3a077fa5-1a92-44dc-a8b8-99517a246ced;"><path d="M182.25-29.81L182.25-29.81L182.25-29.81Q181.88-29.44 181.88-29.03L181.88-29.03L181.88-29.03Q181.88-28.61 183.59-28.24L183.59-28.24L183.59-28.24Q185.29-27.88 187.31-26.22L187.31-26.22L187.31-26.22Q189.34-24.56 190.35-22.63L190.35-22.63L190.35-22.63Q192.28-18.86 192.46-16.01L192.46-16.01L192.56-14.81L192.56-14.81Q193.02-4.05 196.51-0.09L196.51-0.09L196.51-0.09Q196.97 0.55 196.97 0.83L196.97 0.83L196.97 0.83Q196.97 1.84 194.40 1.84L194.40 1.84L194.40 1.84Q186.67 1.84 184.55-1.38L184.55-1.38L184.55-1.38Q183.45-2.67 183.45-9.38L183.45-9.38L183.45-11.68L183.45-11.68Q183.45-20.24 181.33-23.55L181.33-23.55L181.33-23.55Q180.23-25.12 178.62-25.12L178.62-25.12L178.62-25.12Q177.01-25.12 175.26-22.31L175.26-22.31L175.26-22.31Q173.51-19.50 173.51-17.57L173.51-17.57L173.51-17.57Q173.51-9.84 173.88-6.81L173.88-6.81L173.88-6.81Q174.25-3.77 174.25-3.68L174.25-3.68L174.25-3.68Q174.25-1.01 170.61 0.46L170.61 0.46L170.61 0.46Q166.98 1.93 163.76 1.93L163.76 1.93L163.76 1.93Q162.56 1.93 162.56 0.46L162.56 0.46L162.56 0.09L162.56 0.09Q164.77-11.22 164.77-35.60L164.77-35.60L164.77-35.60Q164.77-43.61 164.40-49.13L164.40-49.13L164.22-50.97L164.22-50.97Q164.04-53.54 163.16-55.38L163.16-55.38L163.16-55.38Q162.29-57.22 161.46-57.78L161.46-57.78L160.72-58.24L160.72-58.24Q160.08-58.60 160.08-59.06L160.08-59.06L160.08-59.06Q160.08-60.54 164.50-62.38L164.50-62.38L164.50-62.38Q168.91-64.22 172.13-64.22L172.13-64.22L172.13-64.22Q173.60-64.12 173.70-63.11L173.70-63.11L173.70-63.11Q174.16-59.43 174.16-47.98L174.16-47.98L174.16-47.98Q174.16-36.52 173.60-29.72L173.60-29.72L173.60-29.72Q173.60-28.61 173.97-28.61L173.97-28.61L173.97-28.61Q174.34-28.61 175.12-29.67L175.12-29.67L175.12-29.67Q175.90-30.73 177.88-33.03L177.88-33.03L177.88-33.03Q179.86-35.33 183.22-38.36L183.22-38.36L183.22-38.36Q186.58-41.40 188.65-41.40L188.65-41.40L188.65-41.40Q190.72-41.40 192.74-40.39L192.74-40.39L192.74-40.39Q194.76-39.38 194.76-38.46L194.76-38.46L193.75-37.81L193.75-37.81Q188.51-35.88 182.25-29.81" fill="#101010" stroke="none" stroke-width="none" transform="translate(-139.09999465942383,24.099185971154096)" style="fill: rgb(16, 16, 16);"></path></g><g class="path" style="transform: matrix(1, 0, 0, 1, 0, 0); transform-origin: 75.535px 3.90919px; animation: 2.08333s linear -0.152778s infinite normal forwards running bounce-3a077fa5-1a92-44dc-a8b8-99517a246ced;"><path d="M229.45-27.60L229.45-27.60L229.26-15.82L229.26-15.82Q229.26-3.59 231.93-1.10L231.93-1.10L231.93-1.10Q232.30-0.74 232.30-0.28L232.30-0.28L232.30-0.28Q232.30 1.10 226.37 1.10L226.37 1.10L226.37 1.10Q220.43 1.10 220.06-2.39L220.06-2.39L220.06-2.39Q219.97-3.22 219.97-5.80L219.97-5.80L220.34-20.52L220.34-20.52Q220.34-21.16 219.60-21.16L219.60-21.16L219.60-21.16Q215.19-21.16 211.32-18.68L211.32-18.68L211.32-18.68Q207.46-16.19 207.46-12.33L207.46-12.33L207.46-12.33Q207.46-10.30 208.56-8.92L208.56-8.92L208.56-8.92Q209.67-7.54 211.28-7.54L211.28-7.54L211.28-7.54Q212.89-7.54 213.95-8.19L213.95-8.19L213.95-8.19Q215.00-8.83 215.19-8.92L215.19-8.92L215.19-8.92Q216.75-8.74 216.75-5.66L216.75-5.66L216.75-5.66Q216.75-2.58 213.90-0.69L213.90-0.69L213.90-0.69Q211.05 1.20 207.92 1.20L207.92 1.20L207.92 1.20Q204.79 1.20 202.54 0.09L202.54 0.09L202.54 0.09Q200.28-1.01 199.27-2.39L199.27-2.39L199.27-2.39Q198.26-3.77 197.62-5.52L197.62-5.52L197.62-5.52Q196.97-7.64 196.97-9.20L196.97-9.20L196.97-9.20Q196.97-15.64 201.02-19.50L201.02-19.50L201.02-19.50Q205.07-23.37 211.42-25.02L211.42-25.02L211.42-25.02Q219.79-26.68 220.16-28.06L220.16-28.06L220.16-28.06Q220.43-29.07 220.43-31.46L220.43-31.46L220.43-31.46Q220.43-36.34 215.46-36.34L215.46-36.34L215.46-36.34Q213.35-36.34 211.69-35.01L211.69-35.01L211.69-35.01Q210.04-33.67 210.04-31.65L210.04-31.65L210.59-29.44L210.59-29.44Q210.40-27.88 207.28-27.60L207.28-27.60L206.26-27.51L206.26-27.51Q203.50-27.51 201.89-28.89L201.89-28.89L201.89-28.89Q200.28-30.27 200.28-32.57L200.28-32.57L200.28-32.57Q200.28-34.04 201.25-35.83L201.25-35.83L201.25-35.83Q202.22-37.63 203.69-38.73L203.69-38.73L203.69-38.73Q205.16-39.84 208.24-40.71L208.24-40.71L208.24-40.71Q211.32-41.58 214.18-41.58L214.18-41.58L214.18-41.58Q217.03-41.58 218.59-41.40L218.59-41.40L218.59-41.40Q220.16-41.22 222.87-40.53L222.87-40.53L222.87-40.53Q225.58-39.84 227.38-37.90L227.38-37.90L227.38-37.90Q229.17-35.97 229.31-33.81L229.31-33.81L229.31-33.81Q229.45-31.65 229.45-27.60" fill="#101010" stroke="none" stroke-width="none" transform="translate(-139.09999465942383,24.099185971154096)" style="fill: rgb(16, 16, 16);"></path></g><g class="path" style="transform: matrix(1, 0, 0, 1, 0, 0); transform-origin: 117.67px -8.05582px; animation: 2.08333s linear 0s infinite normal forwards running bounce-3a077fa5-1a92-44dc-a8b8-99517a246ced;"><path d="M269.93-28.80L269.93-28.80L269.84-39.74L269.84-39.74Q269.84-56.03 268.73-61.36L268.73-61.36L268.73-61.36Q268.55-62.01 268.55-62.38L268.55-62.38L268.55-62.38Q268.55-63.94 271.68-65.04L271.68-65.04L271.68-65.04Q274.80-66.15 276.64-66.15L276.64-66.15L276.64-66.15Q278.48-66.15 278.48-65.04L278.48-65.04L278.48-65.04Q278.48-64.95 278.30-64.03L278.30-64.03L278.30-64.03Q276.18-52.72 276.18-28.06L276.18-28.06L276.18-28.06Q276.18-11.22 278.12-3.86L278.12-3.86L278.12-3.86Q278.48-2.67 278.48-2.58L278.48-2.58L278.48-2.58Q278.48-0.64 274.25 0.60L274.25 0.60L274.25 0.60Q270.02 1.84 268.27 1.84L268.27 1.84L268.27 1.84Q265.51 1.84 264.50 0.55L264.50 0.55L264.50 0.55Q262.48-2.02 257.92-13.94L257.92-13.94L257.92-13.94Q253.37-25.85 249.96-36.16L249.96-36.16L246.47-46.46L246.47-46.46Q246.28-46.92 246.01-46.92L246.01-46.92L246.01-46.92Q245.64-46.92 245.18-46.28L245.18-46.28L245.18-46.28Q244.72-37.72 244.72-29.16L244.72-29.16L244.72-29.16Q244.72-20.61 244.86-16.01L244.86-16.01L244.86-16.01Q245.00-11.41 245.18-9.02L245.18-9.02L245.18-9.02Q245.36-6.62 245.55-5.20L245.55-5.20L245.55-5.20Q245.73-3.77 245.87-3.13L245.87-3.13L245.87-3.13Q246.01-2.48 246.01-2.21L246.01-2.21L246.01-2.21Q246.01-0.46 242.97 0.51L242.97 0.51L242.97 0.51Q239.94 1.47 237.50 1.47L237.50 1.47L237.50 1.47Q235.06 1.47 235.06 0.37L235.06 0.37L235.06 0.37Q235.06-0.18 235.34-1.01L235.34-1.01L235.34-1.01Q235.61-1.84 235.98-3.13L235.98-3.13L235.98-3.13Q236.90-6.35 237.27-14.86L237.27-14.86L237.27-14.86Q237.64-23.37 237.64-34.27L237.64-34.27L237.64-34.27Q237.64-45.17 237.36-50.14L237.36-50.14L237.36-50.14Q236.90-58.24 235.70-61.00L235.70-61.00L235.70-61.00Q235.43-61.27 235.43-61.73L235.43-61.73L235.43-61.73Q235.43-63.20 240.30-64.58L240.30-64.58L240.30-64.58Q245.18-65.96 247.89-65.96L247.89-65.96L247.89-65.96Q250.61-65.96 251.07-65.87L251.07-65.87L251.07-65.87Q252.36-65.96 252.63-64.40L252.63-64.40L252.63-64.40Q255.30-54.74 260.13-41.68L260.13-41.68L260.13-41.68Q264.96-28.61 268.73-21.71L268.73-21.71L268.73-21.71Q269.19-21.25 269.47-21.25L269.47-21.25L269.47-21.25Q269.93-21.25 269.93-28.80" fill="#101010" stroke="none" stroke-width="none" transform="translate(-139.09999465942383,24.099185971154096)" style="fill: rgb(16, 16, 16);"></path></g></g>
</g>
</g>
<style id="bounce-3a077fa5-1a92-44dc-a8b8-99517a246ced" data-anikit="">@keyframes bounce-3a077fa5-1a92-44dc-a8b8-99517a246ced
{
  0% {
    animation-timing-function: cubic-bezier(0.1361,0.2514,0.2175,0.8786);
    transform: translate(0,0px) scaleY(1);
  }
  37% {
    animation-timing-function: cubic-bezier(0.7674,0.1844,0.8382,0.7157);
    transform: translate(0,-39.96px) scaleY(1);
  }
  72% {
    animation-timing-function: cubic-bezier(0.1118,0.2149,0.2172,0.941);
    transform: translate(0,0px) scaleY(1);
  }
  87% {
    animation-timing-function: cubic-bezier(0.7494,0.2259,0.8209,0.6963);
    transform: translate(0,19.900000000000002px) scaleY(0.602);
  }
  100% {
    transform: translate(0,0px) scaleY(1);
  }
}</style></svg>