<?xml version="1.0" encoding="utf-8"?>
<svg xmlns="http://www.w3.org/2000/svg" style="margin: auto; background: #0d1117; display: block; shape-rendering: auto;" width="280" height="250" preserveAspectRatio="xMidYMid">
<style type="text/css">
  text {
    text-anchor: middle; font-size: 61px; opacity: 0;
  }
</style>
<g style="transform-origin:140px 125px;transform:scale(1)">
<g transform="translate(140,125)">
  <g transform="translate(0,0)"><g class="path" style="transform: scale(0.91); transform-origin: -88.595px -4.53141px; animation: 1s linear -0.586667s infinite normal forwards running breath-fb10beb3-78f6-43e3-8f25-93d43ddd6492;"><path d="M38.31-1.04L29.52 0.30L26.54-11.59L11.96-11.59L8.72 0L0.92-0.61L6.28-15.43L14.46-41.66L25.38-42.46L33.24-16.35L38.31-1.04zM24.70-18.06L19.89-34.53L19.09-34.53L13.85-18.06L24.70-18.06" fill="#ddeded" stroke="none" stroke-width="none" transform="translate(-108.21002197265625,16.54858673943413)" style="fill: rgb(221, 237, 237);"></path></g><g class="path" style="transform: scale(0.91); transform-origin: -61.27px -7.05641px; animation: 1s linear -0.513333s infinite normal forwards running breath-fb10beb3-78f6-43e3-8f25-93d43ddd6492;"><path d="M42.76-45.69L51.12-47.21L50.33-15.86L51.00-1.52L42.76 0L43.49-14.82L42.76-45.69" fill="#ddeded" stroke="none" stroke-width="none" transform="translate(-108.21002197265625,16.54858673943413)" style="fill: rgb(221, 237, 237);"></path></g><g class="path" style="transform: scale(0.91); transform-origin: -45.96px 1.02359px; animation: 1s linear -0.44s infinite normal forwards running breath-fb10beb3-78f6-43e3-8f25-93d43ddd6492;"><path d="M58.19-29.52L66.37-31.05L65.64-15.86L66.31-1.52L58.13 0L58.86-14.82L58.19-29.52" fill="#ddeded" stroke="none" stroke-width="none" transform="translate(-108.21002197265625,16.54858673943413)" style="fill: rgb(221, 237, 237);"></path></g><g class="path" style="transform: scale(0.91); transform-origin: -45.685px -23.7114px; animation: 1s linear -0.366667s infinite normal forwards running breath-fb10beb3-78f6-43e3-8f25-93d43ddd6492;"><path d="M57.77-39.99L57.77-39.99L57.77-39.99Q57.77-42.03 59.35-43.65L59.35-43.65L59.35-43.65Q60.94-45.26 63.01-45.26L63.01-45.26L63.01-45.26Q65.09-45.26 66.19-44.13L66.19-44.13L66.19-44.13Q67.28-43.01 67.28-40.75L67.28-40.75L67.28-40.75Q67.28-38.49 65.73-36.87L65.73-36.87L65.73-36.87Q64.17-35.26 62.13-35.26L62.13-35.26L62.13-35.26Q60.09-35.26 58.93-36.60L58.93-36.60L58.93-36.60Q57.77-37.94 57.77-39.99" fill="#ddeded" stroke="none" stroke-width="none" transform="translate(-108.21002197265625,16.54858673943413)" style="fill: rgb(221, 237, 237);"></path></g><g class="path" style="transform: scale(0.91); transform-origin: -25.155px 1.17859px; animation: 1s linear -0.293333s infinite normal forwards running breath-fb10beb3-78f6-43e3-8f25-93d43ddd6492;"><path d="M84.06-6.22L84.06-6.22L84.06-6.22Q85.83-6.22 87.78-7.14L87.78-7.14L87.78-7.14Q89.73-8.05 90.83-8.97L90.83-8.97L91.93-9.88L94.73-6.47L94.73-6.47Q94.12-5.43 92.84-4.09L92.84-4.09L92.84-4.09Q91.56-2.75 90.25-1.80L90.25-1.80L90.25-1.80Q88.94-0.85 86.77-0.09L86.77-0.09L86.77-0.09Q84.61 0.67 82.29 0.67L82.29 0.67L82.29 0.67Q77.35 0.67 74.24-3.08L74.24-3.08L74.24-3.08Q71.13-6.83 71.13-12.75L71.13-12.75L71.13-12.75Q71.13-20.19 75.46-25.80L75.46-25.80L75.46-25.80Q79.79-31.41 85.58-31.41L85.58-31.41L85.58-31.41Q90.04-31.41 92.51-28.91L92.51-28.91L92.51-28.91Q94.98-26.41 94.98-21.90L94.98-21.90L94.98-21.90Q94.98-19.21 94.06-15.80L94.06-15.80L92.84-14.52L77.59-13.12L77.59-13.12Q78.63-6.22 84.06-6.22zM84.06-25.13L84.06-25.13L84.06-25.13Q81.37-25.13 79.54-22.97L79.54-22.97L79.54-22.97Q77.71-20.80 77.41-17.45L77.41-17.45L87.78-18.73L87.78-18.73Q87.96-20.13 87.96-21.04L87.96-21.04L87.96-21.04Q87.96-25.13 84.06-25.13" fill="#ddeded" stroke="none" stroke-width="none" transform="translate(-108.21002197265625,16.54858673943413)" style="fill: rgb(221, 237, 237);"></path></g><g class="path" style="transform: scale(0.91); transform-origin: 1.64998px 1.11859px; animation: 1s linear -0.22s infinite normal forwards running breath-fb10beb3-78f6-43e3-8f25-93d43ddd6492;"><path d="M98.21 0.37L99.25-6.04L112.12-24.40L98.64-23.48L100.04-31.17L110.47-30.50L120.66-31.23L119.62-24.89L106.69-6.47L121.51-7.32L120.17 0.37L109.80-0.30L98.21 0.37" fill="#ddeded" stroke="none" stroke-width="none" transform="translate(-108.21002197265625,16.54858673943413)" style="fill: rgb(221, 237, 237);"></path></g><g class="path" style="transform: scale(0.91); transform-origin: 30.505px -6.75141px; animation: 1s linear -0.146667s infinite normal forwards running breath-fb10beb3-78f6-43e3-8f25-93d43ddd6492;"><path d="M151.71-4.03L144.75 0.61L133.28-16.29L133.28-15.86L133.96-1.52L125.72 0L126.45-14.82L125.72-45.69L134.08-47.21L133.28-17.75L145.48-31.11L151.22-27.21L140.54-17.20L151.71-4.03" fill="#ddeded" stroke="none" stroke-width="none" transform="translate(-108.21002197265625,16.54858673943413)" style="fill: rgb(221, 237, 237);"></path></g><g class="path" style="transform: scale(0.91); transform-origin: 57.525px 0.933588px; animation: 1s linear -0.0733333s infinite normal forwards running breath-fb10beb3-78f6-43e3-8f25-93d43ddd6492;"><path d="M161.22 0L161.22 0Q157.62 0 155.34-2.29L155.34-2.29L155.34-2.29Q153.05-4.58 153.05-8.45L153.05-8.45L153.05-8.45Q153.05-12.32 156.59-15.16L156.59-15.16L156.59-15.16Q160.12-18.00 165.19-18.00L165.19-18.00L169.34-18.00L169.34-19.03L169.34-19.03Q169.34-22.02 168.12-23.12L168.12-23.12L168.12-23.12Q166.90-24.22 163.54-24.22L163.54-24.22L163.54-24.22Q162.14-24.22 160.22-23.64L160.22-23.64L160.22-23.64Q158.29-23.06 155.92-21.84L155.92-21.84L154.15-26.66L154.15-26.66Q156.77-28.49 160.52-29.95L160.52-29.95L160.52-29.95Q164.27-31.41 166.71-31.41L166.71-31.41L166.71-31.41Q176.29-31.41 176.29-22.14L176.29-22.14L176.29-10.19L176.29-10.19Q176.29-6.77 178.42-2.56L178.42-2.56L171.96 0.18L171.96 0.18Q170.43-2.75 169.70-5.06L169.70-5.06L169.70-5.06Q166.35 0 161.22 0L161.22 0zM163.78-6.22L163.78-6.22L163.78-6.22Q166.22-6.22 169.34-8.72L169.34-8.72L169.34-12.81L169.34-12.81Q166.10-13.54 164.09-13.54L164.09-13.54L164.09-13.54Q160.25-13.54 160.25-10.13L160.25-10.13L160.25-10.13Q160.25-8.36 161.22-7.29L161.22-7.29L161.22-7.29Q162.20-6.22 163.78-6.22" fill="#ddeded" stroke="none" stroke-width="none" transform="translate(-108.21002197265625,16.54858673943413)" style="fill: rgb(221, 237, 237);"></path></g><g class="path" style="transform: scale(0.91); transform-origin: 92.995px -4.49641px; animation: 1s linear 0s infinite normal forwards running breath-fb10beb3-78f6-43e3-8f25-93d43ddd6492;"><path d="M209.90-41.30L217.34-42.21L216.55-15.86L217.22-1.34L210.02 0.18L191.84-29.22L191.84-15.86L192.70 0L185.07 0L185.81-14.82L185.07-41.91L192.39-42.27L210.51-12.44L209.90-41.30" fill="#ddeded" stroke="none" stroke-width="none" transform="translate(-108.21002197265625,16.54858673943413)" style="fill: rgb(221, 237, 237);"></path></g></g>
</g>
</g>
<style id="breath-fb10beb3-78f6-43e3-8f25-93d43ddd6492" data-anikit="">@keyframes breath-fb10beb3-78f6-43e3-8f25-93d43ddd6492
{
  0% {
    animation-timing-function: cubic-bezier(0.9647,0.2413,-0.0705,0.7911);
    transform: scale(0.9099999999999999);
  }
  51% {
    animation-timing-function: cubic-bezier(0.9226,0.2631,-0.0308,0.7628);
    transform: scale(1.02994);
  }
  100% {
    transform: scale(0.9099999999999999);
  }
}</style></svg>
